<?xml version="1.0" encoding="UTF-8" standalone="no"?>
<!-- Created with Inkscape (http://www.inkscape.org/) -->

<svg
   width="70.485001mm"
   height="22.807083mm"
   viewBox="0 0 70.485002 22.807083"
   version="1.1"
   id="svg143"
   inkscape:version="1.2.1 (9c6d41e410, 2022-07-14)"
   sodipodi:docname="deck.svg"
   xmlns:inkscape="http://www.inkscape.org/namespaces/inkscape"
   xmlns:sodipodi="http://sodipodi.sourceforge.net/DTD/sodipodi-0.dtd"
   xmlns="http://www.w3.org/2000/svg"
   xmlns:svg="http://www.w3.org/2000/svg">
  <sodipodi:namedview
     id="namedview145"
     pagecolor="#ffffff"
     bordercolor="#000000"
     borderopacity="0.25"
     inkscape:showpageshadow="2"
     inkscape:pageopacity="0.0"
     inkscape:pagecheckerboard="0"
     inkscape:deskcolor="#d1d1d1"
     inkscape:document-units="mm"
     showgrid="false"
     inkscape:zoom="2.528269"
     inkscape:cx="320.3773"
     inkscape:cy="45.881194"
     inkscape:window-width="1920"
     inkscape:window-height="1011"
     inkscape:window-x="0"
     inkscape:window-y="0"
     inkscape:window-maximized="1"
     inkscape:current-layer="g29" />
  <defs
     id="defs140" />
  <g
     inkscape:label="Ebene 1"
     inkscape:groupmode="layer"
     id="layer1"
     transform="translate(36.036887,-18.646237)">
    <g
       id="g29"
       transform="matrix(0.26458333,0,0,0.26458333,-38.238501,0.04924367)">
	
	
	
	
<g
   id="g19"
   transform="translate(-136.17894,-39.912151)">
	<path
   d="m 144.9,194.9 c -0.3,-0.3 -0.4,-0.6 -0.4,-1 v -81.4 c 0,-0.4 0.1,-0.7 0.4,-1 0.3,-0.3 0.6,-0.4 1,-0.4 h 29.4 c 5.7,0 10.7,1 15.1,3 4.3,2 7.7,4.9 10.1,8.6 2.4,3.7 3.6,8.1 3.6,13.1 v 34.9 c 0,5 -1.2,9.3 -3.6,13.1 -2.4,3.7 -5.7,6.6 -10.1,8.6 -4.3,2 -9.4,3 -15.1,3 h -29.4 c -0.4,0 -0.7,-0.2 -1,-0.5 z M 159,183.3 h 16.9 c 4.3,0 7.6,-1.3 10.2,-4 2.5,-2.7 3.8,-6.3 3.9,-10.8 V 138 c 0,-4.6 -1.3,-8.2 -3.9,-10.9 -2.6,-2.7 -6,-4 -10.4,-4 H 159 c -0.4,0 -0.6,0.2 -0.6,0.6 v 59 c 0,0.4 0.2,0.6 0.6,0.6 z"
   id="path11" />

	<path
   d="m 270.3,122.7 c -0.3,0.3 -0.6,0.4 -1,0.4 h -41.1 c -0.4,0 -0.6,0.2 -0.6,0.6 v 22.5 c 0,0.4 0.2,0.6 0.6,0.6 h 27.6 c 0.4,0 0.7,0.1 1,0.4 0.3,0.3 0.4,0.6 0.4,1 v 9.2 c 0,0.4 -0.1,0.7 -0.4,1 -0.3,0.3 -0.6,0.4 -1,0.4 h -27.6 c -0.4,0 -0.6,0.2 -0.6,0.6 v 23.2 c 0,0.4 0.2,0.6 0.6,0.6 h 41.1 c 0.4,0 0.7,0.1 1,0.4 0.3,0.3 0.4,0.6 0.4,1 v 9.2 c 0,0.4 -0.1,0.7 -0.4,1 -0.3,0.3 -0.6,0.4 -1,0.4 h -54.2 c -0.4,0 -0.7,-0.1 -1,-0.4 -0.3,-0.3 -0.4,-0.6 -0.4,-1 v -81.4 c 0,-0.4 0.1,-0.7 0.4,-1 0.3,-0.3 0.6,-0.4 1,-0.4 h 54.2 c 0.4,0 0.7,0.1 1,0.4 0.3,0.3 0.4,0.6 0.4,1 v 9.2 c 0.1,0.5 -0.1,0.8 -0.4,1.1 z"
   id="path13" />

	<path
   d="m 292.1,192.8 c -4.6,-2.4 -8.1,-5.7 -10.6,-9.9 -2.5,-4.3 -3.7,-9.2 -3.7,-14.8 v -29.7 c 0,-5.6 1.2,-10.6 3.7,-14.8 2.5,-4.3 6,-7.5 10.6,-9.9 4.6,-2.3 9.9,-3.5 15.9,-3.5 5.9,0 11.2,1.1 15.8,3.4 4.6,2.2 8.1,5.4 10.6,9.5 2.5,4.1 3.7,8.8 3.7,14.2 0,0.4 -0.1,0.7 -0.4,1 -0.3,0.3 -0.6,0.4 -1,0.4 l -11.1,0.6 c -1,0 -1.4,-0.4 -1.4,-1.3 0,-4.7 -1.5,-8.5 -4.4,-11.4 -2.9,-2.9 -6.8,-4.3 -11.7,-4.3 -4.9,0 -8.8,1.4 -11.8,4.3 -3,2.9 -4.5,6.7 -4.5,11.4 v 30.7 c 0,4.7 1.5,8.4 4.5,11.3 3,2.9 6.9,4.3 11.8,4.3 4.9,0 8.8,-1.4 11.7,-4.3 2.9,-2.8 4.4,-6.6 4.4,-11.4 0,-0.9 0.5,-1.3 1.4,-1.3 l 11.1,0.5 c 0.4,0 0.7,0.1 1,0.4 0.3,0.2 0.4,0.5 0.4,0.8 0,5.5 -1.2,10.3 -3.7,14.4 -2.5,4.1 -6,7.3 -10.6,9.6 -4.6,2.2 -9.8,3.4 -15.8,3.4 -6,-0.1 -11.3,-1.3 -15.9,-3.6 z"
   id="path15" />

	<path
   d="m 348.2,194.9 c -0.3,-0.3 -0.4,-0.6 -0.4,-1 v -81.4 c 0,-0.4 0.1,-0.7 0.4,-1 0.3,-0.3 0.6,-0.4 1,-0.4 h 11.1 c 0.4,0 0.7,0.1 1,0.4 0.3,0.3 0.4,0.6 0.4,1 v 36 c 0,0.2 0.1,0.4 0.2,0.5 0.2,0.1 0.3,0 0.5,-0.1 l 31.3,-37 c 0.5,-0.6 1.1,-0.8 1.8,-0.8 H 408 c 0.8,0 1.2,0.3 1.2,0.8 0,0.2 -0.1,0.6 -0.4,1 l -27.6,33.8 c -0.2,0.3 -0.3,0.6 -0.1,0.8 l 29.6,46.1 c 0.2,0.5 0.2,0.8 0.2,0.8 0,0.6 -0.4,0.8 -1.2,0.8 h -12.6 c -0.7,0 -1.3,-0.3 -1.7,-1 l -23.8,-37.1 c -0.3,-0.5 -0.6,-0.5 -0.8,-0.1 l -8.9,10.4 c -0.2,0.3 -0.2,0.6 -0.2,0.8 v 25.5 c 0,0.4 -0.1,0.7 -0.4,1 -0.3,0.3 -0.6,0.4 -1,0.4 h -11.1 c -0.3,0.3 -0.7,0.1 -1,-0.2 z"
   id="path17" />

</g>
</g>
  </g>
</svg>
