
<?xml version="1.0" encoding="utf-8"?>
<!-- Generator: Adobe Illustrator 24.1.0, SVG Export Plug-In . SVG Version: 6.00 Build 0)  -->
<svg version="1.1"
	 id="svg833" inkscape:version="1.0rc1 (09960d6, 2020-04-09)" sodipodi:docname="freedeck.svg" xmlns:cc="http://creativecommons.org/ns#" xmlns:dc="http://purl.org/dc/elements/1.1/" xmlns:inkscape="http://www.inkscape.org/namespaces/inkscape" xmlns:rdf="http://www.w3.org/1999/02/22-rdf-syntax-ns#" xmlns:sodipodi="http://sodipodi.sourceforge.net/DTD/sodipodi-0.dtd" xmlns:svg="http://www.w3.org/2000/svg"
	 xmlns="http://www.w3.org/2000/svg" xmlns:xlink="http://www.w3.org/1999/xlink" x="0100%" y="100%" viewBox="0 0 411.4 302.6"
	 style="enable-background:new 0 0 411.4 302.6;" xml:space="preserve">
<style type="text/css">
	.st0{font-family:'MyriadPro-Regular';}
	.st1{font-size:12px;}
	.st2{fill:#666666;}
	.st3{fill:#B2B2B2;}
</style>
<path id="rect845_4_" d="M3.7,218h115.1c2,0,3.7,1.7,3.7,3.7v77.1c0,2-1.7,3.7-3.7,3.7H3.7c-2,0-3.7-1.7-3.7-3.7v-77.1
	C0,219.7,1.7,218,3.7,218z"/>
<path id="rect870_4_" d="M3.7,111.1h115.1c2,0,3.7,1.7,3.7,3.7v77.1c0,2-1.7,3.7-3.7,3.7H3.7c-2,0-3.7-1.7-3.7-3.7v-77.1
	C0,112.7,1.7,111.1,3.7,111.1z"/>
<path id="rect874_4_" d="M148.2,218h115.1c2,0,3.7,1.7,3.7,3.7v77.1c0,2-1.7,3.7-3.7,3.7H148.2c-2,0-3.7-1.7-3.7-3.7v-77.1
	C144.5,219.7,146.1,218,148.2,218z"/>
<path id="rect876_4_" d="M292.7,218h115.1c2,0,3.7,1.7,3.7,3.7v77.1c0,2-1.7,3.7-3.7,3.7H292.7c-2,0-3.7-1.7-3.7-3.7v-77.1
	C289,219.7,290.6,218,292.7,218z"/>
<path id="rect878_4_" d="M3.7,0.4h115.1c2,0,3.7,1.7,3.7,3.7v77.1c0,2-1.7,3.7-3.7,3.7H3.7c-2,0-3.7-1.7-3.7-3.7V4.1
	C0,2.1,1.7,0.4,3.7,0.4z"/>
<text transform="matrix(1 0 0 1 12.9838 17.2477)" class="st0 st1"> </text>
<g>
	<path d="M144.9,194.9c-0.3-0.3-0.4-0.6-0.4-1v-81.4c0-0.4,0.1-0.7,0.4-1c0.3-0.3,0.6-0.4,1-0.4h29.4c5.7,0,10.7,1,15.1,3
		c4.3,2,7.7,4.9,10.1,8.6c2.4,3.7,3.6,8.1,3.6,13.1v34.9c0,5-1.2,9.3-3.6,13.1c-2.4,3.7-5.7,6.6-10.1,8.6c-4.3,2-9.4,3-15.1,3h-29.4
		C145.5,195.4,145.2,195.2,144.9,194.9z M159,183.3h16.9c4.3,0,7.6-1.3,10.2-4c2.5-2.7,3.8-6.3,3.9-10.8V138c0-4.6-1.3-8.2-3.9-10.9
		c-2.6-2.7-6-4-10.4-4H159c-0.4,0-0.6,0.2-0.6,0.6v59C158.4,183.1,158.6,183.3,159,183.3z"/>
	<path d="M270.3,122.7c-0.3,0.3-0.6,0.4-1,0.4h-41.1c-0.4,0-0.6,0.2-0.6,0.6v22.5c0,0.4,0.2,0.6,0.6,0.6h27.6c0.4,0,0.7,0.1,1,0.4
		c0.3,0.3,0.4,0.6,0.4,1v9.2c0,0.4-0.1,0.7-0.4,1c-0.3,0.3-0.6,0.4-1,0.4h-27.6c-0.4,0-0.6,0.2-0.6,0.6v23.2c0,0.4,0.2,0.6,0.6,0.6
		h41.1c0.4,0,0.7,0.1,1,0.4c0.3,0.3,0.4,0.6,0.4,1v9.2c0,0.4-0.1,0.7-0.4,1c-0.3,0.3-0.6,0.4-1,0.4h-54.2c-0.4,0-0.7-0.1-1-0.4
		c-0.3-0.3-0.4-0.6-0.4-1v-81.4c0-0.4,0.1-0.7,0.4-1c0.3-0.3,0.6-0.4,1-0.4h54.2c0.4,0,0.7,0.1,1,0.4c0.3,0.3,0.4,0.6,0.4,1v9.2
		C270.8,122.1,270.6,122.4,270.3,122.7z"/>
	<path d="M292.1,192.8c-4.6-2.4-8.1-5.7-10.6-9.9c-2.5-4.3-3.7-9.2-3.7-14.8v-29.7c0-5.6,1.2-10.6,3.7-14.8c2.5-4.3,6-7.5,10.6-9.9
		c4.6-2.3,9.9-3.5,15.9-3.5c5.9,0,11.2,1.1,15.8,3.4c4.6,2.2,8.1,5.4,10.6,9.5c2.5,4.1,3.7,8.8,3.7,14.2c0,0.4-0.1,0.7-0.4,1
		c-0.3,0.3-0.6,0.4-1,0.4l-11.1,0.6c-1,0-1.4-0.4-1.4-1.3c0-4.7-1.5-8.5-4.4-11.4c-2.9-2.9-6.8-4.3-11.7-4.3
		c-4.9,0-8.8,1.4-11.8,4.3c-3,2.9-4.5,6.7-4.5,11.4v30.7c0,4.7,1.5,8.4,4.5,11.3c3,2.9,6.9,4.3,11.8,4.3c4.9,0,8.8-1.4,11.7-4.3
		c2.9-2.8,4.4-6.6,4.4-11.4c0-0.9,0.5-1.3,1.4-1.3l11.1,0.5c0.4,0,0.7,0.1,1,0.4c0.3,0.2,0.4,0.5,0.4,0.8c0,5.5-1.2,10.3-3.7,14.4
		c-2.5,4.1-6,7.3-10.6,9.6c-4.6,2.2-9.8,3.4-15.8,3.4C302,196.3,296.7,195.1,292.1,192.8z"/>
	<path d="M348.2,194.9c-0.3-0.3-0.4-0.6-0.4-1v-81.4c0-0.4,0.1-0.7,0.4-1c0.3-0.3,0.6-0.4,1-0.4h11.1c0.4,0,0.7,0.1,1,0.4
		c0.3,0.3,0.4,0.6,0.4,1v36c0,0.2,0.1,0.4,0.2,0.5c0.2,0.1,0.3,0,0.5-0.1l31.3-37c0.5-0.6,1.1-0.8,1.8-0.8h12.5
		c0.8,0,1.2,0.3,1.2,0.8c0,0.2-0.1,0.6-0.4,1l-27.6,33.8c-0.2,0.3-0.3,0.6-0.1,0.8l29.6,46.1c0.2,0.5,0.2,0.8,0.2,0.8
		c0,0.6-0.4,0.8-1.2,0.8h-12.6c-0.7,0-1.3-0.3-1.7-1l-23.8-37.1c-0.3-0.5-0.6-0.5-0.8-0.1l-8.9,10.4c-0.2,0.3-0.2,0.6-0.2,0.8v25.5
		c0,0.4-0.1,0.7-0.4,1c-0.3,0.3-0.6,0.4-1,0.4h-11.1C348.9,195.4,348.5,195.2,348.2,194.9z"/>
</g>
<g>
	<path d="M197.3,5.7h-45.8c-0.3,0-0.5,0.2-0.5,0.5v32.7c0,0.3,0.2,0.5,0.5,0.5H184c0.8,0,1.2,0.4,1.2,1.2v3.3c0,0.8-0.4,1.2-1.2,1.2
		h-32.4c-0.3,0-0.5,0.2-0.5,0.5v38c0,0.8-0.4,1.2-1.2,1.2h-4c-0.8,0-1.2-0.4-1.2-1.2V1.2c0-0.8,0.4-1.2,1.2-1.2h51.5
		c0.8,0,1.2,0.4,1.2,1.2v3.3C198.5,5.3,198.1,5.7,197.3,5.7z"/>
	<path d="M261,83.9l-18.5-38.5c-0.1-0.2-0.2-0.4-0.5-0.4h-22.9c-0.3,0-0.5,0.2-0.5,0.5v38c0,0.8-0.4,1.2-1.2,1.2h-4
		c-0.8,0-1.2-0.4-1.2-1.2V1.2c0-0.8,0.4-1.2,1.2-1.2h30.5c6.8,0,12.2,2.1,16.4,6.3c4.2,4.2,6.2,9.7,6.2,16.5
		c0,5.7-1.6,10.6-4.7,14.5c-3.1,3.9-7.4,6.4-12.7,7.3c-0.4,0.2-0.5,0.4-0.4,0.6l18.5,38.1c0.1,0.2,0.1,0.4,0.1,0.6
		c0,0.6-0.3,0.8-1,0.8h-4C261.7,84.7,261.2,84.5,261,83.9z M218.6,6.2v33.1c0,0.3,0.2,0.5,0.5,0.5h24.2c5,0,9.1-1.6,12.2-4.7
		c3.1-3.1,4.7-7.2,4.7-12.2c0-5.1-1.6-9.2-4.7-12.3c-3.1-3.1-7.2-4.7-12.2-4.7h-24.2C218.8,5.7,218.6,5.9,218.6,6.2z"/>
	<path d="M337.6,5.7h-45.9c-0.3,0-0.5,0.2-0.5,0.5v32.7c0,0.3,0.2,0.5,0.5,0.5h32.6c0.8,0,1.2,0.4,1.2,1.2v3.3
		c0,0.8-0.4,1.2-1.2,1.2h-32.6c-0.3,0-0.5,0.2-0.5,0.5v33.1c0,0.3,0.2,0.5,0.5,0.5h45.9c0.8,0,1.2,0.4,1.2,1.2v3.3
		c0,0.8-0.4,1.2-1.2,1.2h-51.6c-0.8,0-1.2-0.4-1.2-1.2V1.2c0-0.8,0.4-1.2,1.2-1.2h51.6c0.8,0,1.2,0.4,1.2,1.2v3.3
		C338.8,5.3,338.4,5.7,337.6,5.7z"/>
	<path d="M410.1,5.7h-45.9c-0.3,0-0.5,0.2-0.5,0.5v32.7c0,0.3,0.2,0.5,0.5,0.5h32.6c0.8,0,1.2,0.4,1.2,1.2v3.3
		c0,0.8-0.4,1.2-1.2,1.2h-32.6c-0.3,0-0.5,0.2-0.5,0.5v33.1c0,0.3,0.2,0.5,0.5,0.5h45.9c0.8,0,1.2,0.4,1.2,1.2v3.3
		c0,0.8-0.4,1.2-1.2,1.2h-51.6c-0.8,0-1.2-0.4-1.2-1.2V1.2c0-0.8,0.4-1.2,1.2-1.2h51.6c0.8,0,1.2,0.4,1.2,1.2v3.3
		C411.4,5.3,411,5.7,410.1,5.7z"/>
</g>
</svg>
